<?xml version="1.0" encoding="utf-8"?>
<!-- Generator: Adobe Illustrator 24.0.1, SVG Export Plug-In . SVG Version: 6.00 Build 0)  -->
<svg version="1.1" id="Layer_1" xmlns="http://www.w3.org/2000/svg" xmlns:xlink="http://www.w3.org/1999/xlink" x="0px" y="0px"
	 viewBox="0 10 111 28" style="enable-background:new 0 0 111 50;" xml:space="preserve">
<style type="text/css">
	.st0{fill:url(#BG_1_);}
	.st1{fill:#fff;}
</style>
<linearGradient id="BG_1_" gradientUnits="userSpaceOnUse" x1="-239.3198" y1="437.9698" x2="-239.3198" y2="436.9698" gradientTransform="matrix(111 0 0 -50 26620 21898.4883)">
	<stop  offset="0" style="stop-color:#f2f2f2"/>
	<stop  offset="1" style="stop-color:#ffffff"/>
</linearGradient>
<!-- <path id="BG" class="st0" d="M16,0h79c8.8,0,16,7.2,16,16v18c0,8.8-7.2,16-16,16H16C7.2,50,0,42.8,0,34V16C0,7.2,7.2,0,16,0z"/> -->
<path id="amelelo" class="st1" d="M37.1,27.7c-0.3,1-1.3,1.7-2.3,1.5h-3.6c-1,0-1.5-0.3-1.5-1C28.9,29,28,29.4,27,29.4
	c-0.7,0-1.3-0.2-1.8-0.7c-0.5-0.5-0.7-1.1-0.7-1.8c0-1.2,0.5-2.4,1.5-3.1c1-0.7,2.2-1.1,3.4-1h5.4l-1.8,5H37.1z M30.9,24.2h-2.1
	l-0.7,2.2c0,0.1-0.1,0.3-0.1,0.4c0,0.6,0.5,0.8,1.6,0.8L30.9,24.2z M55.7,27.7c-0.2,1-0.9,1.5-2.2,1.5h-3.9c-0.3,0-0.6-0.1-0.8-0.4
	c-0.2-0.2-0.4-0.5-0.4-0.9c0-0.1,0-0.2,0-0.3c0.1-0.5,0.4-1.2,0.6-2.1l-3.2,2.7c-0.6,0.6-1.3,0.9-2.1,1c-0.9,0-1.3-0.3-1.3-1
	c0-0.2,0.1-0.5,0.1-0.7l0.8-2.1l-3.8,3.2c-0.3,0.3-0.8,0.4-1.2,0.4h-1.9l2.3-6.5h3.4l-1.1,3.1l2.9-2.4c0.7-0.6,1.6-0.9,2.5-0.9
	c0.8,0,1.1,0.3,1.1,0.9c0,0.2,0,0.4-0.1,0.5l-0.7,1.9l2.8-2.4c0.6-0.6,1.5-0.9,2.3-0.9c0.8,0,1.2,0.3,1.2,1c0,0.3-0.1,0.5-0.2,0.8
	l-1.2,3.4H55.7z M67.7,27.7c-0.1,0.5-0.5,0.9-0.9,1.2c-0.4,0.3-1,0.4-1.5,0.4H60c-3.1,0-4.6-0.9-4.6-2.8c0-1.2,0.6-2.2,1.6-2.8
	c1-0.6,2.1-0.9,3.2-0.9h1.4c0.7,0,1.4,0.1,2.1,0.4c0.7,0.2,1.2,0.8,1.3,1.5c0,0.7-0.4,1.4-1,1.7h-3.2l1-2.1h-2l-0.8,2.3
	c0,0.1-0.1,0.2-0.1,0.4c0,0.5,0.4,0.8,1.2,0.8L67.7,27.7z M76.9,27.7c-0.2,0.6-0.6,1-1.1,1.2c-0.4,0.2-0.8,0.3-1.3,0.3h-3.7
	c-0.9,0-1.4-0.3-1.4-1c0-0.2,0-0.4,0.1-0.6l3.5-10h3.4l-3.6,10H76.9z M88.8,27.7c-0.1,0.5-0.5,0.9-0.9,1.2c-0.4,0.3-0.9,0.4-1.5,0.4
	h-5.3c-3.1,0-4.6-0.9-4.6-2.8c0-1.2,0.6-2.2,1.6-2.8c1-0.6,2.1-0.9,3.2-0.9h1.4c0.7,0,1.4,0.1,2.1,0.4c0.7,0.2,1.2,0.8,1.3,1.5
	c0,0.7-0.4,1.4-1,1.7H82l1-2.1h-2l-0.8,2.3c0,0.1-0.1,0.2-0.1,0.4c0,0.5,0.4,0.8,1.2,0.8L88.8,27.7z M96.2,27.7
	c-0.2,0.6-0.6,1-1.1,1.2c-0.4,0.2-0.8,0.3-1.3,0.3h-3.7c-0.9,0-1.4-0.3-1.4-1c0-0.2,0-0.4,0.1-0.6l3.5-10h3.4l-3.6,10H96.2z
	 M103.9,23.9c0.3,0.3,0.6,0.7,0.7,1.1c0.1,0.3,0.2,0.6,0.2,1c-0.1,1-0.6,1.9-1.4,2.5c-0.9,0.6-2,0.9-3.1,0.9
	c-1.2,0.1-2.4-0.2-3.5-0.9c-0.7-0.5-1.1-1.3-1.1-2.1c0-0.2,0-0.3,0-0.5c0.1-0.9,0.7-1.7,1.4-2.3c1-0.6,2.2-0.9,3.4-0.9
	C100.5,22.7,102.8,22.7,103.9,23.9z M101.9,24.2h-2.2l-0.9,2.4c0,0.1-0.1,0.2-0.1,0.4c0,0.5,0.5,0.8,1.5,0.8c0.1,0,0.2,0,0.3,0
	L101.9,24.2z"/>
<path id="G" class="st1" d="M19.8,21.5l-0.7,2.2h2.2l-1.1,3.4c-1.8,0-3.6,0.5-5.1,1.4c-1.1,0.7-2.1,1.5-3,2.5
	c-0.9,0.9-1.3,1.4-1.9,1.4c-0.5,0.1-1.1-0.1-1.4-0.5c-0.3-0.5-0.5-1.1-0.4-1.8c0-2,1.1-5.2,2.8-8.3c1.8-3.3,3.2-4.3,3.5-4.5h11.2
	l0.7-2.2H14.5c-1,0-2.1,0.8-3.4,2.4c-0.8,1-1.5,2.1-2.1,3.2c-1.9,3.4-3,6.9-3,9.3c-0.1,1.1,0.3,2.2,0.9,3.1c0.8,0.9,2,1.5,3.2,1.4
	c1.7,0,2.6-1,3.7-2.1c1.7-2.2,4.5-3.4,7.3-3.2H22l2.5-7.8L19.8,21.5z"/>
</svg>
